<svg width="140" height="82" viewBox="0 0 140 82" fill="none" xmlns="http://www.w3.org/2000/svg">
<path d="M38.7417 37.7573V7.56822H33.6493V6.32557H49.0728C52.484 6.32557 55.3997 6.81288 57.8201 7.78751C60.2566 8.7459 62.2871 10.6383 63.9115 13.4647C65.5359 16.2749 66.3481 19.3287 66.3481 22.6262C66.3481 26.1187 65.4546 29.2375 63.6678 31.9827C61.881 34.7279 59.818 36.5878 57.4789 37.5624C55.1561 38.5208 52.3215 39 48.9753 39H33.6493V37.7573H38.7417ZM44.5407 7.56822V37.7573H48.7804C51.0058 37.7573 52.817 37.5543 54.2139 37.1482C55.6271 36.7421 56.7886 35.8568 57.6982 34.4923C58.6241 33.1279 59.2495 31.3979 59.5744 29.3024C59.8993 27.207 60.0617 24.4699 60.0617 21.0912C60.0617 17.0302 59.5419 14.0008 58.5023 12.0028C57.4789 10.0048 56.22 8.77026 54.7256 8.29919C53.2312 7.81188 51.2819 7.56822 48.8778 7.56822H44.5407ZM76.6031 28.8151H66.2233L62.8852 37.7573H68.9279V39H57.0862V37.7573H61.5938L73.5087 5.57023H74.264L85.6915 37.7573H90.0773V39H74.5077V37.7573H79.795L76.6031 28.8151ZM66.6863 27.5725H76.1645L71.5594 14.4881H71.4619L66.6863 27.5725ZM104.012 5.96008L104.158 14.4394H103.013C101.388 9.35504 98.5212 6.81288 94.4115 6.81288C92.1374 6.81288 90.3668 7.44639 89.0998 8.71341C87.849 9.96418 87.2236 11.2637 87.2236 12.6119C87.2236 13.8627 87.7434 14.9267 88.783 15.8038C89.8389 16.681 91.7557 17.3632 94.5333 17.8506C97.311 18.3216 99.4227 18.9064 100.868 19.6049C102.33 20.2871 103.557 21.4323 104.548 23.0405C105.555 24.6486 106.058 26.4923 106.058 28.5715C106.058 31.7715 105.011 34.4355 102.915 36.5634C100.836 38.6914 98.2532 39.7553 95.1669 39.7553C92.6491 39.7553 90.1394 38.8213 87.6378 36.9533L85.3475 39H84.4947V29.8629H85.5424C86.5008 32.738 87.8409 34.8984 89.5627 36.3441C91.2846 37.7898 93.1689 38.5127 95.2156 38.5127C97.2461 38.5127 99.106 37.8467 100.795 36.5147C102.501 35.1665 103.354 33.469 103.354 31.4223C103.354 29.7004 102.761 28.2547 101.575 27.0852C100.405 25.8994 98.4968 25.0872 95.8491 24.6486C93.2176 24.1938 91.1952 23.674 89.782 23.0892C88.3688 22.4882 87.1587 21.4567 86.1515 19.9947C85.1444 18.5166 84.6409 16.884 84.6409 15.0972C84.6409 12.6282 85.518 10.4271 87.2724 8.49412C89.0267 6.54486 91.4064 5.57023 94.4115 5.57023C96.9293 5.57023 99.2765 6.36618 101.453 7.95807C102.054 7.38954 102.574 6.72354 103.013 5.96008H104.012Z" fill="#F2F2F2"/>
<path d="M14.0969 71.9573H12.2532V71.5431H17.8899V71.9573H16.3142C16.3142 73.3488 15.8675 74.3478 14.9741 74.9543C14.0807 75.5553 13.1467 75.8558 12.172 75.8558C10.748 75.8558 9.56219 75.2872 8.61463 74.1502C7.66708 73.0131 7.1933 71.6838 7.1933 70.1623C7.1933 68.6192 7.67791 67.2845 8.64712 66.1582C9.61634 65.0266 10.8238 64.4607 12.2695 64.4607C13.0167 64.4607 13.7314 64.6773 14.4137 65.1105C14.6194 65.2405 14.7629 65.3054 14.8441 65.3054C15.0174 65.3054 15.1907 65.1511 15.3639 64.8425H15.7294L15.8431 67.7989H15.4289C14.9795 65.8496 13.9155 64.875 12.237 64.875C11.3653 64.875 10.729 65.0726 10.3284 65.4679C9.92768 65.8577 9.68131 66.3532 9.58926 66.9542C9.50263 67.5498 9.45931 68.4026 9.45931 69.5126C9.45931 71.5106 9.52429 72.8344 9.65424 73.4842C9.7896 74.1339 10.063 74.624 10.4746 74.9543C10.8861 75.2791 11.3896 75.4416 11.9852 75.4416C12.4617 75.4416 12.884 75.3441 13.2522 75.1492C13.6258 74.9543 13.8587 74.6646 13.9507 74.2801C14.0482 73.8903 14.0969 73.3109 14.0969 72.542V71.9573ZM33.4758 72.209H30.0159L28.9032 75.1898H30.9174V75.604H26.9701V75.1898H28.4727L32.4443 64.4607H32.6961L36.5053 75.1898H37.9672V75.604H32.7773V75.1898H34.5398L33.4758 72.209ZM30.1702 71.7948H33.3296L31.7946 67.4334H31.7621L30.1702 71.7948ZM51.0597 65.1267V75.1898H53.5044C53.9755 75.1898 54.3464 75.1546 54.6171 75.0842C54.8878 75.0138 55.1532 74.8433 55.4131 74.5725C55.6784 74.3018 55.8814 73.9796 56.0222 73.606C56.1684 73.2324 56.3227 72.7126 56.4851 72.0466H56.8669L56.5664 75.604H47.413V75.1898H49.1267V65.1267H47.413V64.7125H52.8709V65.1267H51.0597ZM70.2274 65.1267V69.7968H71.2102C71.5567 69.7968 71.8491 69.7644 72.0873 69.6994C72.331 69.629 72.5476 69.4449 72.7371 69.1471C72.932 68.8493 73.043 68.3836 73.0701 67.7501H73.4924V72.3634H73.0701C73.0268 71.4862 72.8562 70.9095 72.5584 70.6334C72.266 70.3518 71.8166 70.2111 71.2102 70.2111H70.2274V75.1898H72.4447C73.7009 75.1898 74.5699 74.9272 75.0518 74.402C75.5391 73.8713 75.8288 73.0564 75.9209 71.9573H76.3351L76.2295 75.604H66.5726V75.1898H68.3025V65.1267H66.5726V64.7125H75.8315L76.0183 67.6202H75.6041C75.4633 66.7376 75.1737 66.1014 74.7351 65.7115C74.2965 65.3217 73.5655 65.1267 72.5422 65.1267H70.2274ZM88.4124 75.1898V65.1267H86.6986V64.7125H92.6682C93.4479 64.7125 94.0869 64.7802 94.585 64.9156C95.0886 65.0509 95.5217 65.3325 95.8845 65.7603C96.2473 66.1826 96.4287 66.6699 96.4287 67.2222C96.4287 67.9099 96.1634 68.4676 95.6327 68.8953C95.1021 69.3231 94.2033 69.6452 92.9363 69.8618V69.9024C93.8459 70.0811 94.5904 70.4276 95.1698 70.942C95.7546 71.4564 96.047 72.3282 96.047 73.5573C96.047 74.2612 96.1282 74.7133 96.2906 74.9136C96.4585 75.1086 96.6886 75.206 96.981 75.206C97.1705 75.206 97.3979 75.1681 97.6632 75.0923V75.4903C97.1921 75.6527 96.7373 75.734 96.2987 75.734C95.4053 75.734 94.7745 75.4849 94.4063 74.9867C94.0381 74.4886 93.8595 74.0013 93.8703 73.5248L93.9028 72.1441C93.9028 71.6622 93.7485 71.1884 93.4398 70.7227C93.1366 70.2517 92.4435 70.0161 91.3606 70.0161H90.3454V75.1898H92.0591V75.604H86.6986V75.1898H88.4124ZM90.3454 65.1267V69.6344H91.8073C92.4354 69.6344 92.9146 69.5938 93.2449 69.5126C93.5752 69.4259 93.8378 69.2066 94.0327 68.8547C94.2331 68.4973 94.3332 67.9315 94.3332 67.1572C94.3332 66.5237 94.2331 66.0608 94.0327 65.7684C93.8324 65.476 93.5887 65.2973 93.3017 65.2323C93.0202 65.1619 92.6493 65.1267 92.189 65.1267H90.3454ZM109.131 75.1898V65.1267H107.353V64.7125H112.859V65.1267H111.064V75.1898H112.859V75.604H107.353V75.1898H109.131ZM126.528 65.1267V69.7968H127.511C127.858 69.7968 128.15 69.7644 128.388 69.6994C128.632 69.629 128.849 69.4449 129.038 69.1471C129.233 68.8493 129.344 68.3836 129.371 67.7501H129.793V72.3634H129.371C129.328 71.4862 129.157 70.9095 128.859 70.6334C128.567 70.3518 128.118 70.2111 127.511 70.2111H126.528V75.1898H128.746C130.002 75.1898 130.871 74.9272 131.353 74.402C131.84 73.8713 132.13 73.0564 132.222 71.9573H132.636L132.531 75.604H122.874V75.1898H124.604V65.1267H122.874V64.7125H132.133L132.319 67.6202H131.905C131.764 66.7376 131.475 66.1014 131.036 65.7115C130.598 65.3217 129.867 65.1267 128.843 65.1267H126.528Z" fill="#F2F2F2"/>
<rect x="50.5934" y="52.6733" width="38.8119" height="1.38614" fill="#F2F2F2"/>
</svg>
