<svg width="12" height="13" viewBox="0 0 12 13" fill="none" xmlns="http://www.w3.org/2000/svg">
<path fill-rule="evenodd" clip-rule="evenodd" d="M11.2867 5.38399H0.509427C0.259101 5.38399 0.0559387 5.18083 0.0559387 4.9305C0.0559387 4.68018 0.259101 4.47701 0.509427 4.47701H11.2867C11.5371 4.47701 11.7402 4.68018 11.7402 4.9305C11.7402 5.18083 11.5371 5.38399 11.2867 5.38399Z" fill="#E5E5E5"/>
<path fill-rule="evenodd" clip-rule="evenodd" d="M8.58677 7.74534C8.33644 7.74534 8.13086 7.54218 8.13086 7.29185C8.13086 7.04153 8.331 6.83836 8.58132 6.83836H8.58677C8.83709 6.83836 9.04025 7.04153 9.04025 7.29185C9.04025 7.54218 8.83709 7.74534 8.58677 7.74534Z" fill="#E5E5E5"/>
<path fill-rule="evenodd" clip-rule="evenodd" d="M5.90363 7.74534C5.6533 7.74534 5.44772 7.54218 5.44772 7.29185C5.44772 7.04153 5.64786 6.83836 5.89819 6.83836H5.90363C6.15396 6.83836 6.35712 7.04153 6.35712 7.29185C6.35712 7.54218 6.15396 7.74534 5.90363 7.74534Z" fill="#E5E5E5"/>
<path fill-rule="evenodd" clip-rule="evenodd" d="M3.21487 7.74534C2.96455 7.74534 2.75836 7.54218 2.75836 7.29185C2.75836 7.04153 2.95911 6.83836 3.20943 6.83836H3.21487C3.4652 6.83836 3.66836 7.04153 3.66836 7.29185C3.66836 7.54218 3.4652 7.74534 3.21487 7.74534Z" fill="#E5E5E5"/>
<path fill-rule="evenodd" clip-rule="evenodd" d="M8.58677 10.0954C8.33644 10.0954 8.13086 9.89228 8.13086 9.64195C8.13086 9.39162 8.331 9.18846 8.58132 9.18846H8.58677C8.83709 9.18846 9.04025 9.39162 9.04025 9.64195C9.04025 9.89228 8.83709 10.0954 8.58677 10.0954Z" fill="#E5E5E5"/>
<path fill-rule="evenodd" clip-rule="evenodd" d="M5.90363 10.0954C5.6533 10.0954 5.44772 9.89228 5.44772 9.64195C5.44772 9.39162 5.64786 9.18846 5.89819 9.18846H5.90363C6.15396 9.18846 6.35712 9.39162 6.35712 9.64195C6.35712 9.89228 6.15396 10.0954 5.90363 10.0954Z" fill="#E5E5E5"/>
<path fill-rule="evenodd" clip-rule="evenodd" d="M3.21487 10.0954C2.96455 10.0954 2.75836 9.89228 2.75836 9.64195C2.75836 9.39162 2.95911 9.18846 3.20943 9.18846H3.21487C3.4652 9.18846 3.66836 9.39162 3.66836 9.64195C3.66836 9.89228 3.4652 10.0954 3.21487 10.0954Z" fill="#E5E5E5"/>
<path fill-rule="evenodd" clip-rule="evenodd" d="M8.34027 2.89688C8.08994 2.89688 7.88678 2.69372 7.88678 2.4434V0.453488C7.88678 0.203163 8.08994 0 8.34027 0C8.59059 0 8.79376 0.203163 8.79376 0.453488V2.4434C8.79376 2.69372 8.59059 2.89688 8.34027 2.89688Z" fill="#E5E5E5"/>
<path fill-rule="evenodd" clip-rule="evenodd" d="M3.45578 2.89688C3.20545 2.89688 3.00229 2.69372 3.00229 2.4434V0.453488C3.00229 0.203163 3.20545 0 3.45578 0C3.7061 0 3.90927 0.203163 3.90927 0.453488V2.4434C3.90927 2.69372 3.7061 2.89688 3.45578 2.89688Z" fill="#E5E5E5"/>
<mask id="mask0_26_2005" style="mask-type:alpha" maskUnits="userSpaceOnUse" x="0" y="0" width="12" height="13">
<path fill-rule="evenodd" clip-rule="evenodd" d="M0 0.954803H11.7907V13H0V0.954803Z" fill="white"/>
</mask>
<g mask="url(#mask0_26_2005)">
<path fill-rule="evenodd" clip-rule="evenodd" d="M3.33828 1.86178C1.77042 1.86178 0.906977 2.69801 0.906977 4.21629V9.68778C0.906977 11.2393 1.77042 12.0931 3.33828 12.0931H8.45242C10.0203 12.0931 10.8837 11.255 10.8837 9.73373V4.21629C10.8861 3.46955 10.6854 2.88908 10.2869 2.49001C9.87698 2.07885 9.24512 1.86178 8.45786 1.86178H3.33828ZM8.45242 13.0001H3.33828C1.27944 13.0001 0 11.7309 0 9.68778V4.21629C0 2.20401 1.27944 0.954803 3.33828 0.954803H8.45786C9.49121 0.954803 10.3456 1.26438 10.9291 1.84908C11.4956 2.41806 11.7937 3.23615 11.7907 4.2175V9.73373C11.7907 11.7484 10.5113 13.0001 8.45242 13.0001Z" fill="#E5E5E5"/>
</g>
</svg>
