<svg width="15" height="15" viewBox="0 0 15 15" fill="none" xmlns="http://www.w3.org/2000/svg">
<path d="M13.1304 7.26562C13.1304 4.29322 10.6046 1.875 7.49999 1.875C4.39537 1.875 1.86957 4.29322 1.86957 7.26562C1.86957 7.34417 1.87171 7.42225 1.87522 7.5C1.87171 7.57772 1.86957 7.6558 1.86957 7.73438C1.86957 7.7794 1.87018 7.82435 1.87136 7.86914C1.87136 7.86923 1.87136 7.86932 1.87136 7.8694C1.94647 10.7796 4.44251 13.125 7.49999 13.125C10.6046 13.125 13.1304 10.7068 13.1304 7.73438C13.1304 7.6558 13.1283 7.57772 13.1248 7.5C13.1282 7.42225 13.1304 7.34417 13.1304 7.26562Z" fill="#231F20"/>
<path d="M7.50001 12.4219C10.204 12.4219 12.396 10.3232 12.396 7.73438C12.396 5.14554 10.204 3.04688 7.50001 3.04688C4.79602 3.04688 2.604 5.14554 2.604 7.73438C2.604 10.3232 4.79602 12.4219 7.50001 12.4219Z" fill="#8F99A4"/>
<path d="M7.5 10.6515C9.18274 10.6515 10.5469 9.34545 10.5469 7.73437C10.5469 6.12329 9.18274 4.81725 7.5 4.81725C5.81726 4.81725 4.45312 6.12329 4.45312 7.73437C4.45312 9.34545 5.81726 10.6515 7.5 10.6515Z" fill="white"/>
<path d="M7.50001 3.28125C10.1631 3.28125 12.3295 5.31688 12.3945 7.85156C12.3955 7.81263 12.396 7.77354 12.396 7.73438C12.396 5.14556 10.204 3.04688 7.50001 3.04688C4.79603 3.04688 2.604 5.14556 2.604 7.73438C2.604 7.77354 2.60456 7.81263 2.60556 7.85156C2.67051 5.31688 4.83698 3.28125 7.50001 3.28125Z" fill="#606E7C"/>
<path d="M10.41 6.1114L9.24994 4.95126L4.60949 9.59154L5.76959 10.7517L10.41 6.1114Z" fill="#8F99A4"/>
<path d="M7.50001 3.04688C10.1219 3.04688 12.2624 5.02008 12.3899 7.5C12.3939 7.42236 12.396 7.34423 12.396 7.26562C12.396 4.67681 10.204 2.57812 7.50001 2.57812C4.79603 2.57812 2.604 4.67681 2.604 7.26562C2.604 7.34423 2.60611 7.42236 2.6101 7.5C2.73766 5.02008 4.87812 3.04688 7.50001 3.04688Z" fill="#697583"/>
</svg>
