<svg width="69" height="69" viewBox="0 0 69 69" fill="none" xmlns="http://www.w3.org/2000/svg">
<path d="M34.5 69C53.5538 69 69 53.5538 69 34.5C69 15.4462 53.5538 0 34.5 0C15.4462 0 0 15.4462 0 34.5C0 53.5538 15.4462 69 34.5 69Z" fill="#ED642B"/>
<path fill-rule="evenodd" clip-rule="evenodd" d="M49.9765 38.5162L49.9342 38.5646V23.3029C49.9342 22.1792 49.4878 21.1016 48.6932 20.307C47.8987 19.5125 46.821 19.0661 45.6973 19.0661H23.3026C22.1789 19.0661 21.1012 19.5125 20.3067 20.307C19.5121 21.1016 19.0657 22.1792 19.0657 23.3029V45.6977C19.0657 46.8213 19.5121 47.899 20.3067 48.6935C21.1012 49.4881 22.1789 49.9345 23.3026 49.9345H40.2802L49.9644 54.3348L49.9765 38.5162Z" fill="white"/>
<path d="M34.4999 46.3028C31.2769 46.3028 28.0539 45.4494 24.852 43.7426C24.5687 43.5916 24.357 43.3344 24.2634 43.0273C24.1697 42.7203 24.2018 42.3887 24.3527 42.1053C24.5036 41.822 24.7609 41.6103 25.0679 41.5166C25.3749 41.423 25.7066 41.4551 25.9899 41.606C31.7157 44.6595 37.2841 44.6595 43.0099 41.606C43.2933 41.4551 43.6249 41.423 43.9319 41.5166C44.239 41.6103 44.4962 41.822 44.6472 42.1053C44.798 42.3887 44.8301 42.7203 44.7365 43.0273C44.6429 43.3344 44.4311 43.5916 44.1478 43.7426C40.946 45.4464 37.723 46.3028 34.4999 46.3028Z" fill="#ED642B"/>
</svg>
