<svg width="11" height="13" viewBox="0 0 11 13" fill="none" xmlns="http://www.w3.org/2000/svg">
<path fill-rule="evenodd" clip-rule="evenodd" d="M5.50035 4.33333C4.85701 4.33333 4.33368 4.85667 4.33368 5.50067C4.33368 6.144 4.85701 6.66667 5.50035 6.66667C6.14368 6.66667 6.66701 6.144 6.66701 5.50067C6.66701 4.85667 6.14368 4.33333 5.50035 4.33333ZM5.50035 7.66667C4.30568 7.66667 3.33368 6.69533 3.33368 5.50067C3.33368 4.30533 4.30568 3.33333 5.50035 3.33333C6.69501 3.33333 7.66701 4.30533 7.66701 5.50067C7.66701 6.69533 6.69501 7.66667 5.50035 7.66667Z" fill="#E5E5E5"/>
<mask id="mask0_26_2020" style="mask-type:alpha" maskUnits="userSpaceOnUse" x="0" y="0" width="11" height="13">
<path fill-rule="evenodd" clip-rule="evenodd" d="M0 0H10.9997V13H0V0Z" fill="white"/>
</mask>
<g mask="url(#mask0_26_2020)">
<path fill-rule="evenodd" clip-rule="evenodd" d="M5.49968 1C3.01834 1 0.999678 3.038 0.999678 5.542C0.999678 8.728 4.74901 11.832 5.49968 11.9973C6.25034 11.8313 9.99968 8.72733 9.99968 5.542C9.99968 3.038 7.98101 1 5.49968 1ZM5.49951 13C4.30351 13 -0.000488281 9.29867 -0.000488281 5.542C-0.000488281 2.486 2.46685 0 5.49951 0C8.53218 0 10.9995 2.486 10.9995 5.542C10.9995 9.29867 6.69551 13 5.49951 13Z" fill="#E5E5E5"/>
</g>
</svg>
