<svg width="112" height="39" viewBox="0 0 112 39" fill="none" xmlns="http://www.w3.org/2000/svg">
<path d="M19.4244 0C8.69963 0 0 8.69963 0 19.4244C0 30.1491 8.69963 38.8487 19.4244 38.8487C30.1491 38.8487 38.8487 30.1491 38.8487 19.4244C38.8487 8.69963 30.1697 0 19.4244 0ZM10.8487 19.4244C10.8487 14.6923 14.6923 10.8487 19.4244 10.8487C24.1565 10.8487 28 14.6923 28 19.4244C28 20.9948 27.5661 22.462 26.8428 23.7225H12.0059C11.2827 22.4413 10.8487 20.9948 10.8487 19.4244Z" fill="#FF5B00"/>
<path d="M52.2804 6.09594C52.2804 7.99705 50.7306 9.54686 48.8295 9.54686C46.9284 9.54686 45.3785 7.99705 45.3785 6.09594C45.3785 4.19484 46.9284 2.64502 48.8295 2.64502C50.7306 2.64502 52.2804 4.19484 52.2804 6.09594ZM93.0922 2.64502C91.1911 2.64502 89.6206 4.19484 89.6206 6.09594C89.6206 7.99705 91.1704 9.54686 93.0922 9.54686C95.014 9.54686 96.5431 7.99705 96.5431 6.09594C96.5431 4.19484 94.9933 2.64502 93.0922 2.64502ZM51.2265 11.4273H46.4118C46.1431 11.4273 46.1225 11.4893 46.1225 11.7166V24.4871C46.1225 24.7351 46.1431 24.7764 46.4118 24.7764H51.2265C51.4951 24.7764 51.5365 24.7144 51.5365 24.4871V11.7373C51.5365 11.4893 51.4951 11.4273 51.2265 11.4273ZM69.287 3.78155H64.0383C63.7697 3.78155 63.7284 3.82288 63.7284 4.09151V12.2952C63.7284 12.4812 63.4184 12.5432 63.2737 12.3779L54.0575 3.32694C53.8095 3.07897 53.4789 3.1203 53.4789 3.4096V24.5078C53.4789 24.7764 53.4996 24.797 53.7889 24.797H59.0376C59.3062 24.797 59.3475 24.7764 59.3475 24.5078V16.3661C59.3475 16.1801 59.6575 16.1181 59.8022 16.2834L69.0184 25.2723C69.287 25.541 69.597 25.479 69.597 25.1483V4.07085C69.5763 3.80222 69.5557 3.78155 69.287 3.78155ZM89.104 14.279C89.104 20.7262 85.1158 24.797 78.7099 24.797H71.6841C71.4154 24.797 71.3741 24.7764 71.3741 24.5078V4.07085C71.3741 3.80222 71.3948 3.76089 71.6841 3.76089H78.7099C85.2191 3.78155 89.104 7.68709 89.104 14.279ZM82.7808 14.279C82.7808 11.1793 81.4582 9.62952 78.7926 9.62952H77.6767C77.4081 9.62952 77.3667 9.67085 77.3667 9.93948V18.6598C77.3667 18.9284 77.3874 18.9491 77.6767 18.9491H78.7926C81.4582 18.9491 82.7808 17.3786 82.7808 14.279ZM95.4892 11.4273H90.6745C90.4058 11.4273 90.3645 11.4893 90.3645 11.7166V24.4871C90.3645 24.7351 90.3852 24.7764 90.6745 24.7764H95.4892C95.7579 24.7764 95.7992 24.7144 95.7992 24.4871V11.7373C95.7992 11.4893 95.7579 11.4273 95.4892 11.4273ZM111.711 19.817H104.21C103.941 19.817 103.9 19.7756 103.9 19.5277V17.2339C103.9 16.9653 103.941 16.9447 104.21 16.9447H111.256C111.525 16.9447 111.566 16.9033 111.566 16.6554V12.3572C111.566 12.0886 111.525 12.0679 111.256 12.0679H104.189C103.92 12.0679 103.879 12.0266 103.879 11.7786V9.05092C103.879 8.78229 103.92 8.74096 104.189 8.74096H111.545C111.814 8.74096 111.855 8.69963 111.855 8.431V4.07085C111.855 3.80222 111.814 3.76089 111.545 3.76089H98.0309C97.7623 3.76089 97.721 3.80222 97.721 4.07085V24.4871C97.721 24.7557 97.7416 24.7764 98.0309 24.7764H111.69C111.959 24.7764 112 24.7557 112 24.4871V20.1063C112 19.8376 111.979 19.817 111.711 19.817ZM51.2678 35.7697C51.3298 35.7491 51.3505 35.7078 51.3505 35.6664V33.9306C51.3505 33.848 51.2885 33.8273 51.2472 33.8686C50.8546 34.2613 50.1933 34.5092 49.4701 34.5092C48.1682 34.5092 47.3003 33.662 47.3003 32.3602C47.3003 31.0583 48.1682 30.2111 49.4701 30.2111C50.1933 30.2111 50.8339 30.459 51.2265 30.8517C51.2885 30.893 51.3298 30.8723 51.3298 30.7897V29.0539C51.3298 28.9919 51.3298 28.9712 51.2472 28.9506C50.7099 28.6819 50.0073 28.5166 49.3667 28.5166C47.1557 28.5166 45.5232 30.1491 45.5232 32.3602C45.5232 34.5919 47.135 36.2037 49.3667 36.2037C50.0073 36.2037 50.7099 36.0384 51.2678 35.7697ZM54.3881 36.059C54.4708 36.059 54.4915 36.0384 54.5121 35.9557L54.8427 35.0878C54.8634 35.0052 54.9047 34.9845 54.9874 34.9845H57.0332C57.1158 34.9845 57.1365 35.0052 57.1571 35.0878L57.5084 35.9557C57.5291 36.0384 57.5704 36.059 57.6531 36.059H59.2856C59.3475 36.059 59.3682 36.0384 59.3475 35.9557L56.1446 28.5373C56.1033 28.434 55.938 28.434 55.8966 28.5373L52.6937 35.9557C52.673 36.0384 52.673 36.059 52.7557 36.059H54.3881ZM55.2974 33.6207L55.9379 31.8435C55.9586 31.8022 56.0413 31.8022 56.0619 31.8435L56.7439 33.6207C56.7645 33.7033 56.7439 33.724 56.6612 33.724H55.3594C55.2974 33.724 55.2767 33.7033 55.2974 33.6207ZM71.7874 36.059C71.8907 36.059 71.8907 36.0384 71.8907 35.9557V33.7447C71.8907 33.6413 71.8907 33.6413 71.994 33.6413H72.6966C74.3704 33.6413 75.383 32.6908 75.383 31.141C75.383 29.5498 74.4118 28.6613 72.6553 28.6613H70.2996C70.1963 28.6613 70.1963 28.6819 70.1963 28.7646V35.9557C70.1963 36.059 70.1963 36.059 70.2996 36.059H71.7874ZM71.8907 32.0502V30.2111C71.8907 30.1077 71.8907 30.1077 71.994 30.1077H72.5106C73.2546 30.1077 73.6678 30.459 73.6678 31.1203C73.6678 31.8022 73.2959 32.1535 72.552 32.1535H71.994C71.9114 32.1742 71.8907 32.1535 71.8907 32.0502ZM85.4671 36.059C85.5704 36.059 85.5704 36.0384 85.5704 35.9557V33.5173C85.5704 33.3727 85.6737 33.3727 85.7771 33.4967L87.6162 35.9557C87.6988 36.059 87.6988 36.059 87.8022 36.059H89.5793C89.6619 36.059 89.6826 36.0177 89.6206 35.9557L87.5335 33.29C87.5129 33.2694 87.5129 33.2074 87.5542 33.1867C88.5047 32.8768 89.104 32.0502 89.104 30.9963C89.104 29.4672 88.0708 28.6613 86.1284 28.6613H83.9999C83.8966 28.6613 83.8966 28.6819 83.8966 28.7646V35.9557C83.8966 36.059 83.8966 36.059 83.9999 36.059H85.4671ZM85.5704 32.0089V30.1697C85.5704 30.0664 85.5704 30.0664 85.6737 30.0664H86.2317C86.9756 30.0664 87.3682 30.4177 87.3682 31.0996C87.3682 31.7816 86.9963 32.1122 86.2523 32.1122H85.6737C85.5911 32.1122 85.5704 32.1122 85.5704 32.0089ZM96.1712 33.9513C96.1712 31.4923 92.9475 31.7816 92.9475 30.6244C92.9475 30.2317 93.2368 29.9838 93.6915 29.9838C94.1874 29.9838 94.4974 30.2937 94.7453 30.645C94.7867 30.707 94.828 30.707 94.9106 30.6657L96.0678 30.0458C96.1505 29.9838 96.1505 29.9424 96.1092 29.8598C95.7166 29.0332 94.8073 28.4959 93.6295 28.4959C92.1416 28.4959 91.1704 29.4052 91.1704 30.6244C91.1704 33.0421 94.3734 32.7114 94.3734 34.0133C94.3734 34.4472 94.0427 34.7159 93.5675 34.7159C93.0095 34.7159 92.6582 34.4059 92.3689 33.848C92.3276 33.7653 92.2863 33.7653 92.2243 33.8273L90.9638 34.5092C90.8811 34.5506 90.8811 34.5919 90.9225 34.6952C91.3357 35.6044 92.3276 36.2244 93.6501 36.2244C95.3239 36.2037 96.1712 35.1705 96.1712 33.9513ZM67.9852 28.7232C67.9852 28.7026 67.9852 28.7026 67.9852 28.6819C67.9852 28.6406 67.9645 28.6199 67.9025 28.6199C67.8612 28.6199 67.8199 28.6406 67.7992 28.6819C67.7579 28.7439 67.6959 28.8059 67.6339 28.8679C67.3239 29.2399 64.6376 32.3602 64.5343 32.4635C64.5136 32.4841 64.4929 32.4841 64.4723 32.4841C64.4516 32.4841 64.4309 32.4635 64.4103 32.4428C64.2243 32.2362 61.4553 29.0126 61.1867 28.7026C61.166 28.6819 61.166 28.6819 61.1453 28.6613C61.1247 28.6406 61.0833 28.6406 61.042 28.6406C61.0007 28.6406 61.0007 28.6819 61.0007 28.7232C61.0007 31.1823 61.0007 33.6413 61.0007 36.1004C61.0007 36.121 61.0007 36.1417 61.0007 36.1624C61.0007 36.183 61.0213 36.2037 61.042 36.2037C61.0627 36.2037 61.0833 36.2037 61.104 36.2037C61.5586 36.2037 62.0339 36.2037 62.4885 36.2037C62.5092 36.2037 62.5298 36.2037 62.5505 36.2037C62.5712 36.2037 62.5918 36.183 62.5918 36.1624C62.5918 36.1417 62.5918 36.1004 62.5918 36.0797C62.5918 35.0258 62.5918 33.9926 62.5918 32.9387C62.5918 32.9181 62.5918 32.9181 62.5918 32.9181C62.5918 32.8974 62.6125 32.8768 62.6332 32.8561C62.6745 32.8354 62.7158 32.8561 62.7571 32.8974C62.8605 33.0214 63.935 34.2819 64.3483 34.7572C64.4103 34.8192 64.5343 34.8399 64.5963 34.7572C64.6376 34.7159 66.1667 32.9181 66.2081 32.8561C66.2287 32.8354 66.2701 32.8148 66.3114 32.8354C66.3527 32.8561 66.3527 32.8768 66.3527 32.9181V32.9387C66.3527 33.9926 66.3527 35.0465 66.3527 36.0797C66.3527 36.183 66.3527 36.2037 66.4767 36.2037C66.9313 36.2037 67.3859 36.2037 67.8612 36.2037C67.8819 36.2037 67.9025 36.2037 67.9232 36.2037C67.9439 36.2037 67.9645 36.183 67.9645 36.1624C67.9645 36.1417 67.9645 36.1004 67.9645 36.0797C67.9852 34.8605 67.9852 29.9424 67.9852 28.7232ZM78.8339 30.2524C78.8339 30.1491 78.8339 30.1491 78.9372 30.1491H81.6442C81.7475 30.1491 81.7475 30.1284 81.7475 30.0458V28.7646C81.7475 28.6613 81.7475 28.6613 81.6442 28.6613H77.2221C77.1188 28.6613 77.1188 28.6819 77.1188 28.7646V35.9557C77.1188 36.059 77.1188 36.059 77.2221 36.059H81.6856C81.7889 36.059 81.7889 36.0384 81.7889 35.9557V34.6745C81.7889 34.5712 81.7889 34.5712 81.6856 34.5712H78.9165C78.8132 34.5712 78.8132 34.5506 78.8132 34.4679V33.2074C78.8132 33.1041 78.8132 33.1041 78.9165 33.1041H81.5202C81.6236 33.1041 81.6236 33.0834 81.6236 33.0007V31.7609C81.6236 31.6576 81.6236 31.6576 81.5202 31.6576H78.9165C78.8132 31.6576 78.8132 31.6369 78.8132 31.5542L78.8339 30.2524Z" fill="#FF5B00"/>
</svg>
