<svg width="12" height="12" viewBox="0 0 12 12" fill="none" xmlns="http://www.w3.org/2000/svg">
<path d="M7.69499 6.3918C7.76579 6.237 7.96199 6.0936 8.13119 6.0744C8.30039 6.0552 8.45459 5.9004 8.47379 5.7312C8.49419 5.5632 8.63699 5.3664 8.79119 5.295C8.86887 5.25546 8.9321 5.19242 8.97185 5.11485C9.01161 5.03728 9.02586 4.94914 9.01259 4.863C8.97779 4.6962 9.05339 4.4652 9.17819 4.3506C9.24008 4.28884 9.2808 4.20905 9.29449 4.12269C9.30819 4.03634 9.29415 3.94787 9.25439 3.87C9.21325 3.78626 9.19185 3.6942 9.19185 3.6009C9.19185 3.50759 9.21325 3.41553 9.25439 3.3318C9.29424 3.25394 9.30833 3.16545 9.29463 3.07907C9.28094 2.9927 9.24017 2.9129 9.17819 2.8512C9.05339 2.7354 8.97839 2.505 9.01259 2.3388C9.02604 2.25247 9.01187 2.1641 8.97211 2.08631C8.93235 2.00851 8.86903 1.94527 8.79119 1.9056C8.70875 1.86161 8.63736 1.79951 8.58238 1.72396C8.52741 1.6484 8.49028 1.56137 8.47379 1.4694C8.46011 1.3834 8.41962 1.30391 8.3581 1.24229C8.29658 1.18066 8.21717 1.14003 8.13119 1.1262C8.03918 1.11003 7.95208 1.07309 7.87649 1.01819C7.8009 0.963297 7.73883 0.891888 7.69499 0.809396C7.65541 0.73158 7.59211 0.668366 7.51423 0.628891C7.43636 0.589416 7.34796 0.575725 7.26179 0.589796C7.16932 0.602756 7.07512 0.594471 6.98633 0.565568C6.89754 0.536666 6.81651 0.487907 6.74939 0.422996C6.63359 0.296996 6.41759 0.263396 6.26939 0.346796C6.12119 0.430196 5.87819 0.430196 5.73059 0.346796C5.65295 0.306426 5.56444 0.29193 5.47798 0.305422C5.39152 0.318915 5.31164 0.35969 5.24999 0.421796C5.18292 0.486782 5.1019 0.53559 5.0131 0.564497C4.92429 0.593404 4.83006 0.601647 4.73759 0.588596C4.65154 0.574751 4.56331 0.588622 4.48566 0.628203C4.40801 0.667785 4.34495 0.731028 4.30559 0.808796C4.23419 0.962396 4.03799 1.1058 3.86879 1.125C3.78266 1.13883 3.7031 1.17953 3.64147 1.24127C3.57983 1.30301 3.53928 1.38264 3.52559 1.4688C3.50932 1.56077 3.47226 1.64781 3.41726 1.7233C3.36226 1.79878 3.29075 1.86072 3.20819 1.9044C3.13062 1.94427 3.06763 2.00762 3.02819 2.08541C2.98876 2.1632 2.9749 2.25146 2.98859 2.3376C3.02159 2.5038 2.94659 2.7348 2.82179 2.85C2.69699 2.9652 2.66219 3.1812 2.74559 3.3306C2.82899 3.4782 2.82899 3.7212 2.74559 3.8688C2.70579 3.94676 2.69172 4.03533 2.70542 4.12179C2.71911 4.20825 2.75985 4.28814 2.82179 4.35C2.94719 4.464 3.02159 4.695 2.98859 4.8624C2.97489 4.94837 2.98875 5.03647 3.0282 5.11408C3.06765 5.19168 3.13066 5.2548 3.20819 5.2944C3.36299 5.3658 3.50519 5.5626 3.52499 5.7306C3.54539 5.8998 3.69899 6.0546 3.86819 6.0738C4.03739 6.093 4.23359 6.237 4.30499 6.3912C4.34466 6.46867 4.40779 6.53162 4.48538 6.57106C4.56296 6.6105 4.65103 6.62441 4.73699 6.6108C4.90379 6.5778 5.13479 6.65219 5.24939 6.7776C5.3112 6.83941 5.39098 6.88007 5.47732 6.89376C5.56365 6.90745 5.6521 6.89346 5.72999 6.8538C5.87759 6.7704 6.12059 6.7704 6.26879 6.8538C6.41699 6.9372 6.63299 6.9024 6.74879 6.7776C6.86459 6.6516 7.09439 6.5778 7.26119 6.6108C7.34735 6.62467 7.4357 6.61097 7.5136 6.57164C7.59151 6.53231 7.655 6.46936 7.69499 6.3918ZM5.99999 5.6394C5.45895 5.6394 4.94007 5.42447 4.55749 5.04189C4.17492 4.65932 3.95999 4.14044 3.95999 3.5994C3.95999 3.05835 4.17492 2.53947 4.55749 2.1569C4.94007 1.77432 5.45895 1.5594 5.99999 1.5594C6.54103 1.5594 7.05992 1.77432 7.44249 2.1569C7.82506 2.53947 8.03999 3.05835 8.03999 3.5994C8.03999 4.14044 7.82506 4.65932 7.44249 5.04189C7.05992 5.42447 6.54103 5.6394 5.99999 5.6394ZM3.58499 6.8454L2.83919 11.0748L4.71599 10.7964L6.38459 11.7L7.12739 7.4874C6.52763 7.66276 5.89526 7.69605 5.2804 7.58462C4.66553 7.47318 4.08507 7.22009 3.58499 6.8454ZM8.37659 6.8742C8.18922 7.01038 7.99048 7.13023 7.78259 7.2324L7.33379 9.774L9.35519 8.6772L8.37659 6.8742Z" fill="#8F99A4"/>
</svg>
