<svg width="86" height="14" viewBox="0 0 86 14" fill="none" xmlns="http://www.w3.org/2000/svg">
<path d="M6.52447 1.46352C6.67415 1.00287 7.32585 1.00287 7.47553 1.46353L8.45934 4.49139C8.52628 4.6974 8.71826 4.83688 8.93487 4.83688H12.1186C12.6029 4.83688 12.8043 5.45669 12.4124 5.74139L9.83679 7.61271C9.66155 7.74003 9.58822 7.96572 9.65516 8.17173L10.639 11.1996C10.7886 11.6602 10.2614 12.0433 9.86955 11.7586L7.29389 9.88729C7.11865 9.75997 6.88135 9.75997 6.70611 9.88729L4.13045 11.7586C3.73859 12.0433 3.21136 11.6602 3.36103 11.1996L4.34484 8.17173C4.41178 7.96572 4.33845 7.74003 4.16321 7.61271L1.58755 5.74139C1.1957 5.45669 1.39708 4.83688 1.88145 4.83688H5.06513C5.28174 4.83688 5.47372 4.6974 5.54066 4.49139L6.52447 1.46352Z" fill="#FF9F24"/>
<path d="M42.5245 1.46352C42.6741 1.00287 43.3259 1.00287 43.4755 1.46353L44.4593 4.49139C44.5263 4.6974 44.7183 4.83688 44.9349 4.83688H48.1186C48.6029 4.83688 48.8043 5.45669 48.4124 5.74139L45.8368 7.61271C45.6615 7.74003 45.5882 7.96572 45.6552 8.17173L46.639 11.1996C46.7886 11.6602 46.2614 12.0433 45.8695 11.7586L43.2939 9.88729C43.1186 9.75997 42.8814 9.75997 42.7061 9.88729L40.1305 11.7586C39.7386 12.0433 39.2114 11.6602 39.361 11.1996L40.3448 8.17173C40.4118 7.96572 40.3385 7.74003 40.1632 7.61271L37.5876 5.74139C37.1957 5.45669 37.3971 4.83688 37.8814 4.83688H41.0651C41.2817 4.83688 41.4737 4.6974 41.5407 4.49139L42.5245 1.46352Z" fill="#FF9F24"/>
<path d="M24.5245 1.46352C24.6741 1.00287 25.3259 1.00287 25.4755 1.46353L26.4593 4.49139C26.5263 4.6974 26.7183 4.83688 26.9349 4.83688H30.1186C30.6029 4.83688 30.8043 5.45669 30.4124 5.74139L27.8368 7.61271C27.6615 7.74003 27.5882 7.96572 27.6552 8.17173L28.639 11.1996C28.7886 11.6602 28.2614 12.0433 27.8695 11.7586L25.2939 9.88729C25.1186 9.75997 24.8814 9.75997 24.7061 9.88729L22.1305 11.7586C21.7386 12.0433 21.2114 11.6602 21.361 11.1996L22.3448 8.17173C22.4118 7.96572 22.3385 7.74003 22.1632 7.61271L19.5876 5.74139C19.1957 5.45669 19.3971 4.83688 19.8814 4.83688H23.0651C23.2817 4.83688 23.4737 4.6974 23.5407 4.49139L24.5245 1.46352Z" fill="#FF9F24"/>
<path d="M60.5245 1.46352C60.6741 1.00287 61.3259 1.00287 61.4755 1.46353L62.4593 4.49139C62.5263 4.6974 62.7183 4.83688 62.9349 4.83688H66.1186C66.6029 4.83688 66.8043 5.45669 66.4124 5.74139L63.8368 7.61271C63.6615 7.74003 63.5882 7.96572 63.6552 8.17173L64.639 11.1996C64.7886 11.6602 64.2614 12.0433 63.8695 11.7586L61.2939 9.88729C61.1186 9.75997 60.8814 9.75997 60.7061 9.88729L58.1305 11.7586C57.7386 12.0433 57.2114 11.6602 57.361 11.1996L58.3448 8.17173C58.4118 7.96572 58.3385 7.74003 58.1632 7.61271L55.5876 5.74139C55.1957 5.45669 55.3971 4.83688 55.8814 4.83688H59.0651C59.2817 4.83688 59.4737 4.6974 59.5407 4.49139L60.5245 1.46352Z" fill="#FF9F24"/>
<path d="M78.5245 1.46352C78.6741 1.00287 79.3259 1.00287 79.4755 1.46353L80.4593 4.49139C80.5263 4.6974 80.7183 4.83688 80.9349 4.83688H84.1186C84.6029 4.83688 84.8043 5.45669 84.4124 5.74139L81.8368 7.61271C81.6615 7.74003 81.5882 7.96572 81.6552 8.17173L82.639 11.1996C82.7886 11.6602 82.2614 12.0433 81.8695 11.7586L79.2939 9.88729C79.1186 9.75997 78.8814 9.75997 78.7061 9.88729L76.1305 11.7586C75.7386 12.0433 75.2114 11.6602 75.361 11.1996L76.3448 8.17173C76.4118 7.96572 76.3385 7.74003 76.1632 7.61271L73.5876 5.74139C73.1957 5.45669 73.3971 4.83688 73.8814 4.83688H77.0651C77.2817 4.83688 77.4737 4.6974 77.5407 4.49139L78.5245 1.46352Z" fill="#FF9F24"/>
</svg>
